<svg xmlns="http://www.w3.org/2000/svg" width="56.145" height="56" viewBox="0 0 56.145 56">
  <g id="noun-photo-editing-4505425" transform="translate(0 -0.03)">
    <rect id="Rectangle_872" data-name="Rectangle 872" width="19.159" height="3.603" transform="translate(15.393 50.597)" fill="none"/>
    <path id="Path_11871" data-name="Path 11871" d="M25.155,25.392,13.449,12.09.77,18.43v6.962Z" transform="translate(1.031 16.153)" fill="none"/>
    <path id="Path_11872" data-name="Path 11872" d="M31.183,24.186l-.211-.426a.51.51,0,0,1-.094-.117l-.4-.444L20.329,11.83,9.17,17.421l7.1,8.319H31.183Z" transform="translate(12.282 15.804)" fill="none"/>
    <path id="Path_11873" data-name="Path 11873" d="M19.35,35.97h9.077V8.663H19.35Zm3.626-23.12a.9.9,0,0,1,.912-.912.3.3,0,0,1,.14.023.87.87,0,0,1,.772.889V31.783a.87.87,0,0,1-.772.889.3.3,0,0,1-.14.023.9.9,0,0,1-.912-.912Z" transform="translate(25.917 11.563)" fill="none"/>
    <path id="Path_11874" data-name="Path 11874" d="M20.465,9.683l-.725.983h7.252L23.366,5.823l-1.8,2.41Z" transform="translate(26.439 7.759)" fill="none"/>
    <path id="Path_11875" data-name="Path 11875" d="M42.434,18.573H4.817v-.047L.77,18.573v2.714A2.716,2.716,0,0,0,3.484,24h38.95ZM23.953,22.826h0a1.539,1.539,0,0,1,0-3.079h0a1.539,1.539,0,0,1,0,3.079Z" transform="translate(1.031 24.773)" fill="none"/>
    <path id="Path_11876" data-name="Path 11876" d="M10.934,13.707a2.737,2.737,0,0,0,0-5.474,2.777,2.777,0,0,0-2.667,2.152,4.557,4.557,0,0,0-.047.585,2.735,2.735,0,0,0,2.714,2.737Z" transform="translate(11.01 10.987)" fill="none"/>
    <path id="Path_11877" data-name="Path 11877" d="M18.71,6.849a5.7,5.7,0,0,1,5.638,4.929H30.43V10.046L28.746,9.6a.9.9,0,0,1-.632-.561l-.281-.7a.852.852,0,0,1,.047-.819l.866-1.544L25.26,2.5l-1.544.889a.915.915,0,0,1-.819.023l-.7-.281a.9.9,0,0,1-.561-.632L21.19.813H16.23L15.786,2.5a.9.9,0,0,1-.561.632c-.234.094-.468.187-.678.281a.966.966,0,0,1-.842-.023L12.16,2.5,8.674,5.983l.889,1.544a.849.849,0,0,1,.023.819l-.281.7a.9.9,0,0,1-.632.561l-1.684.444v1.724h6.082A5.7,5.7,0,0,1,18.71,6.849Z" transform="translate(9.362 1.049)" fill="none"/>
    <path id="Path_11878" data-name="Path 11878" d="M22.625,21.106H19.35v.351a4.028,4.028,0,0,0,.094.912,4.538,4.538,0,0,0,8.983-.912v-.351Z" transform="translate(25.916 28.228)" fill="none"/>
    <path id="Path_11879" data-name="Path 11879" d="M14.156,4.183A3.818,3.818,0,0,0,10.39,7.264h7.556a3.844,3.844,0,0,0-3.79-3.081Z" transform="translate(13.916 5.562)" fill="none"/>
    <path id="Path_11880" data-name="Path 11880" d="M13.519,17.879a.9.9,0,0,1,.819.281l4.842,5.31,12.235-6.106a1.139,1.139,0,0,1,.257-.094.856.856,0,0,1,.8.281L42.434,28.72V11.336a2.035,2.035,0,0,1,.421-1.24l1.1-1.474,1.31-1.731.257-.335a2.653,2.653,0,0,0-1.137-.274H3.507A2.716,2.716,0,0,0,.793,9V20.927a.023.023,0,0,1-.023.023v3.275L13.262,17.98a.838.838,0,0,1,.257-.1Zm2.877-4.3a4.527,4.527,0,0,1,9.053,0,4.337,4.337,0,0,1-1.029,2.831,4.211,4.211,0,0,1-1.544,1.24,4.571,4.571,0,0,1-1.965.444A4.52,4.52,0,0,1,16.4,13.715Z" transform="translate(1.031 8.375)" fill="none"/>
    <path id="Path_11881" data-name="Path 11881" d="M4.515,50.6h9.053v3.6H10.644a.912.912,0,1,0,0,1.825H39.3a.912.912,0,0,0,0-1.825H36.377V50.6h7.182a6.433,6.433,0,0,0,4.983,5.31,6.363,6.363,0,0,0,7.6-6.223V19.711a2.171,2.171,0,0,0-.4-1.24l-4.8-6.363a1.425,1.425,0,0,0-2.293,0l-1.006,1.345a4.225,4.225,0,0,0-1.357-.526,3.509,3.509,0,0,0-.866-.094H41.617V10.4a.9.9,0,0,0-.678-.866L39.067,9.02l.983-1.684a.936.936,0,0,0-.164-1.1L35.418,1.768a.936.936,0,0,0-1.1-.171l-1.684.983L32.119.708A.9.9,0,0,0,31.254.03H24.891a.9.9,0,0,0-.866.678L23.511,2.58,21.826,1.6a.936.936,0,0,0-1.1.164L16.259,6.236a.936.936,0,0,0-.164,1.1l.983,1.684-1.871.515a.9.9,0,0,0-.678.866v2.426H4.515A4.536,4.536,0,0,0,.094,16.459,4.028,4.028,0,0,0,0,17.372V46.059A4.538,4.538,0,0,0,4.515,50.6ZM45.267,20.226h9.077V47.533H45.267ZM28.554,41.544l-7.1-8.319,11.159-5.591L42.764,39l.4.444a.51.51,0,0,0,.094.117l.211.426v1.553Zm-14.074-13.3,11.7,13.3H1.8V34.582ZM34.552,54.209H15.393v-3.6H34.552ZM4.515,48.773A2.716,2.716,0,0,1,1.8,46.059V43.345L5.849,43.3v.047H43.465v5.427Zm45.29,5.46a4.543,4.543,0,0,1-4.445-3.626,4.028,4.028,0,0,1-.094-.912v-.351h9.077v.351A4.543,4.543,0,0,1,49.8,54.233Zm0-40.642,3.626,4.842H46.179l.725-.983L48,16ZM16.352,11.1l1.684-.444a.9.9,0,0,0,.632-.561l.281-.7a.849.849,0,0,0-.023-.819l-.889-1.544,3.486-3.486,1.544.889a.966.966,0,0,0,.842.023c.211-.094.444-.187.678-.281a.9.9,0,0,0,.561-.632l.444-1.684h4.959L31,3.546a.9.9,0,0,0,.561.632l.7.281a.915.915,0,0,0,.819-.023l1.544-.889,3.486,3.486-.866,1.544a.852.852,0,0,0-.047.819l.281.7a.9.9,0,0,0,.632.561l1.684.444v1.724H33.71a5.687,5.687,0,0,0-11.276,0H16.352Zm15.51,1.731H24.306a3.855,3.855,0,0,1,7.556,0ZM1.8,29.326a.023.023,0,0,0,.023-.023V17.372a2.716,2.716,0,0,1,2.714-2.714H45.407a2.653,2.653,0,0,1,1.146.274l-.248.335L45,17l-1.1,1.474a2.035,2.035,0,0,0-.421,1.24V37.095L33.5,25.927a.856.856,0,0,0-.8-.281,1.139,1.139,0,0,0-.257.094L20.212,31.845l-4.842-5.31a.9.9,0,0,0-.819-.281.838.838,0,0,0-.257.094L1.8,32.594Z" transform="translate(0 0)"/>
    <path id="Path_11882" data-name="Path 11882" d="M11.556,19.048h0a1.539,1.539,0,0,0,0,3.079h0a1.539,1.539,0,1,0,0-3.079Z" transform="translate(13.416 25.472)"/>
    <path id="Path_11883" data-name="Path 11883" d="M21.812,30.821a.3.3,0,0,0,.14-.023.87.87,0,0,0,.772-.889V10.976a.87.87,0,0,0-.772-.889.3.3,0,0,0-.14-.023.9.9,0,0,0-.912.912V29.908a.9.9,0,0,0,.912.912Z" transform="translate(27.993 13.437)"/>
    <path id="Path_11884" data-name="Path 11884" d="M11.965,16.5a4.571,4.571,0,0,0,1.965-.444,4.211,4.211,0,0,0,1.544-1.24A4.337,4.337,0,0,0,16.5,11.988a4.527,4.527,0,0,0-9.053-.007v.14A4.52,4.52,0,0,0,11.965,16.5ZM9.3,11.4a2.777,2.777,0,0,1,2.667-2.152,2.737,2.737,0,1,1-2.714,2.73A4.557,4.557,0,0,1,9.3,11.4Z" transform="translate(9.978 9.969)"/>
  </g>
</svg>
