<svg xmlns="http://www.w3.org/2000/svg" width="54.368" height="56" viewBox="0 0 54.368 56">
  <g id="noun-responsive-design-3728176" transform="translate(-2.865 -2.5)">
    <g id="Group_17920" data-name="Group 17920" transform="translate(2.865 2.5)">
      <path id="Path_11885" data-name="Path 11885" d="M47.682,49.855c0-1.94.009-17.663.009-16.661h6.057a3.492,3.492,0,0,0,3.485-3.489V5.992A3.493,3.493,0,0,0,53.748,2.5H41.775a3.493,3.493,0,0,0-3.485,3.491V20.708H5.621A2.746,2.746,0,0,0,2.867,23.44c0,3,0-10.285,0,26.415a2.756,2.756,0,0,0,2.754,2.752H19.761a11.853,11.853,0,0,1-3.176,3.653H14.973a1.12,1.12,0,1,0,0,2.24H35.589a1.12,1.12,0,0,0,0-2.24h-1.62a12.129,12.129,0,0,1-3.163-3.653H44.947A2.746,2.746,0,0,0,47.682,49.855Zm-7.151-39.14H54.993V25.838H40.531Zm14.462,18.99a1.248,1.248,0,0,1-1.245,1.249l-11.97-.011a1.235,1.235,0,0,1-1.247-1.238V28.078H54.993v1.627ZM40.531,5.992a1.25,1.25,0,0,1,1.245-1.251H53.748a1.25,1.25,0,0,1,1.245,1.251V8.475H40.531V5.992ZM5.107,23.44a.493.493,0,0,1,.514-.492H38.282v6.764a3.508,3.508,0,0,0,3.494,3.483H45.45V43.78H5.107Zm0,26.415V46.027H45.442v3.828a.493.493,0,0,1-.494.512H5.619A.507.507,0,0,1,5.1,49.855Zm25.571,6.4H19.884a10.845,10.845,0,0,0,2.3-3.651h6.186A10.713,10.713,0,0,0,30.676,56.258Z" transform="translate(-2.865 -2.5)"/>
      <path id="Path_11886" data-name="Path 11886" d="M5.029,22.732a1.1,1.1,0,0,0,0,1.568,1.109,1.109,0,0,0,1.59,0,1.136,1.136,0,0,0,0-1.568A1.118,1.118,0,0,0,5.029,22.732Z" transform="translate(-0.59 22.177)"/>
      <path id="Path_11887" data-name="Path 11887" d="M6.55,22.725a1.136,1.136,0,0,0,0,1.568,1.11,1.11,0,0,0,1.59,0,1.083,1.083,0,0,0,0-1.568A1.148,1.148,0,0,0,6.55,22.725Z" transform="translate(1.316 22.183)"/>
      <path id="Path_11888" data-name="Path 11888" d="M9.69,22.725a1.151,1.151,0,0,0-1.593,0,1.1,1.1,0,0,0,0,1.568,1.112,1.112,0,0,0,1.593,0A1.126,1.126,0,0,0,9.69,22.725Z" transform="translate(3.217 22.183)"/>
      <path id="Path_11889" data-name="Path 11889" d="M25.966,3.834H22.827a1.12,1.12,0,0,0,0,2.24h3.139a1.12,1.12,0,0,0,0-2.24Z" transform="translate(20.501 -0.846)"/>
      <path id="Path_11890" data-name="Path 11890" d="M22.743,15.979a1.141,1.141,0,0,0,1.569,0,1.117,1.117,0,1,0-1.569,0Z" transform="translate(21.368 11.838)"/>
    </g>
  </g>
</svg>
