<svg xmlns="http://www.w3.org/2000/svg" width="64" height="56" viewBox="0 0 64 56">
  <g id="noun-vector-design-5175217" transform="translate(0 -4)">
    <path id="Path_11891" data-name="Path 11891" d="M41.437,47.59a1,1,0,1,0,1.824.82l5.525-12.3a3.012,3.012,0,0,0-.593-3.16l-14-15a3.1,3.1,0,0,0-4.387,0l-14,15a3.027,3.027,0,0,0-.577,3.2l6.247,13.9A3,3,0,0,0,19,53v4a3,3,0,0,0,3,3H42a3,3,0,0,0,3-3V53a3,3,0,0,0-3-3H23.647L17.071,35.372a1.008,1.008,0,0,1,.2-1.055L31,19.606V31.142a4,4,0,1,0,2,0V19.606L46.73,34.318a1,1,0,0,1,.214,1.015L41.435,47.59ZM43,53v4a1,1,0,0,1-1,1H22a1,1,0,0,1-1-1V53a1,1,0,0,1,1-1H42A1,1,0,0,1,43,53ZM34,35a2,2,0,1,1-2-2A2,2,0,0,1,34,35Z"/>
    <path id="Path_11892" data-name="Path 11892" d="M59,14a5,5,0,1,0-5-5A5.006,5.006,0,0,0,59,14Zm0-8a3,3,0,1,1-3,3A3,3,0,0,1,59,6Z"/>
    <path id="Path_11893" data-name="Path 11893" d="M59.979,35.1A28.2,28.2,0,0,0,42.371,10H52a1,1,0,0,0,0-2H36.9a5,5,0,0,0-9.8,0H9.9a5,5,0,1,0,0,2h11.73A28.2,28.2,0,0,0,4.021,35.1a5,5,0,1,0,2.02.014,26.114,26.114,0,0,1,21.2-24.649,4.966,4.966,0,0,0,9.512,0,26.114,26.114,0,0,1,21.2,24.649,5,5,0,1,0,2.02-.014ZM8,40a3,3,0,1,1-3-3A3,3,0,0,1,8,40ZM5,12A3,3,0,1,1,8,9,3,3,0,0,1,5,12Zm27,0a3,3,0,1,1,3-3A3,3,0,0,1,32,12ZM59,43a3,3,0,1,1,3-3A3,3,0,0,1,59,43Z"/>
  </g>
</svg>
