<svg xmlns="http://www.w3.org/2000/svg" width="49.999" height="48.851" viewBox="0 0 49.999 48.851">
  <g id="noun-web-programing-3239617" transform="translate(-1.5 -2.075)">
    <g id="Group_17921" data-name="Group 17921">
      <path id="Path_11894" data-name="Path 11894" d="M51.5,5.85a3.741,3.741,0,0,0-3.7-3.775H5.2A3.741,3.741,0,0,0,1.5,5.85V39.812a3.741,3.741,0,0,0,3.7,3.775h9.337l-1.191,1.918a4.584,4.584,0,0,0-.522,2.13v1.17a2.123,2.123,0,0,0,2.12,2.12h23.12a2.127,2.127,0,0,0,2.13-2.12v-1.17a4.639,4.639,0,0,0-.561-2.2l-1.152-1.85H47.8a3.741,3.741,0,0,0,3.7-3.775V5.85ZM38.191,48.805a.127.127,0,0,1-.13.12H14.941a.119.119,0,0,1-.12-.12v-1.17c0-1.111,1.1-2.347,2.074-4.048H36.119c1.58,2.53,2.072,3,2.072,4.048v1.17ZM49.5,39.812a1.74,1.74,0,0,1-1.7,1.775H5.2a1.74,1.74,0,0,1-1.7-1.775V5.85A1.74,1.74,0,0,1,5.2,4.075H47.8A1.74,1.74,0,0,1,49.5,5.85V39.812Z"/>
      <path id="Path_11895" data-name="Path 11895" d="M43.124,6.748H9.874A3.4,3.4,0,0,0,6.481,10.14V35.524a3.4,3.4,0,0,0,3.393,3.392h33.25a3.4,3.4,0,0,0,3.392-3.392V10.14A3.4,3.4,0,0,0,43.124,6.748Zm1.392,28.777a1.393,1.393,0,0,1-1.392,1.392H9.873a1.394,1.394,0,0,1-1.393-1.392V16.681H44.515V35.524Zm0-20.843H8.481V10.14A1.394,1.394,0,0,1,9.874,8.748h33.25a1.393,1.393,0,0,1,1.392,1.392v4.542Z"/>
      <path id="Path_11896" data-name="Path 11896" d="M17.942,10.528a1.189,1.189,0,1,0,1.189,1.189A1.184,1.184,0,0,0,17.942,10.528Z"/>
      <circle id="Ellipse_220" data-name="Ellipse 220" cx="1.189" cy="1.189" r="1.189" transform="translate(10.09 10.528)"/>
      <circle id="Ellipse_221" data-name="Ellipse 221" cx="1.189" cy="1.189" r="1.189" transform="translate(13.422 10.528)"/>
      <path id="Path_11897" data-name="Path 11897" d="M41.55,10.716H22.876a1,1,0,0,0,0,2H41.55a1,1,0,0,0,0-2Z"/>
      <path id="Path_11898" data-name="Path 11898" d="M13.836,27.471l5.986,4.257a1,1,0,1,0,1.158-1.63l-4.8-3.414,4.774-3.171a1,1,0,0,0-1.107-1.666l-5.986,3.976a1,1,0,0,0-.025,1.648Z"/>
      <path id="Path_11899" data-name="Path 11899" d="M31.781,31.493a1,1,0,0,0,1.395.235l5.986-4.257a1,1,0,0,0-.025-1.648L33.15,21.848a1,1,0,0,0-1.107,1.666l4.774,3.171-4.8,3.414A1,1,0,0,0,31.781,31.493Z"/>
      <path id="Path_11900" data-name="Path 11900" d="M23.235,33.352a1,1,0,0,0,1.341-.449l5.638-11.32a1,1,0,0,0-1.791-.892l-5.638,11.32A1,1,0,0,0,23.235,33.352Z"/>
    </g>
  </g>
</svg>
